<svg xmlns="http://www.w3.org/2000/svg" width="377" height="661" viewBox="0 0 377 661">
<g>
<path d="M 156.50 416.29 C150.50,414.87 139.88,410.53 138.40,408.89 C136.88,407.21 136.81,406.08 137.76,398.75 C144.07,350.34 144.83,346.00 146.98,346.00 C147.54,346.00 148.00,345.19 148.00,344.20 C148.00,343.21 148.55,341.85 149.22,341.18 C150.19,340.21 150.19,339.54 149.22,337.99 C147.50,335.22 147.70,330.04 150.00,317.48 C151.11,311.48 152.68,300.25 153.49,292.53 C155.12,277.15 156.95,264.35 159.94,247.50 C162.08,235.40 165.72,212.43 167.22,201.50 C167.75,197.65 168.75,193.91 169.45,193.18 C170.85,191.72 178.20,191.47 188.83,192.52 C199.39,193.56 202.89,194.72 203.57,197.43 C203.90,198.72 204.01,208.13 203.83,218.34 C203.65,228.55 203.79,236.59 204.13,236.20 C204.48,235.82 207.59,228.98 211.04,221.00 C214.50,213.02 218.20,205.71 219.27,204.75 C220.87,203.31 223.12,203.00 231.86,203.01 C244.17,203.03 246.15,203.41 247.82,206.09 C249.10,208.13 248.83,209.19 238.32,243.00 C232.98,260.17 231.21,266.91 230.42,273.00 C230.03,276.02 225.95,293.51 221.36,311.85 C216.76,330.20 213.00,345.40 213.00,345.63 C213.00,345.86 211.88,346.48 210.50,347.00 C207.97,347.96 207.17,350.37 209.00,351.50 C210.62,352.50 210.15,356.73 206.97,370.00 C205.32,376.88 202.66,388.73 201.05,396.35 C198.21,409.82 196.67,413.34 193.11,414.47 C192.22,414.75 187.67,413.94 183.00,412.67 L 174.52 410.37 L 171.39 413.68 C168.63,416.61 167.69,416.99 163.38,416.88 C160.70,416.82 157.60,416.55 156.50,416.29 ZM 180.67 346.90 C186.99,342.99 201.66,325.17 210.21,311.00 C215.43,302.36 216.10,300.54 216.18,294.96 C216.26,289.39 213.37,286.41 207.20,285.72 C201.48,285.07 199.74,285.92 197.63,290.37 C195.76,294.31 195.57,296.00 197.00,296.00 C197.55,296.00 198.00,295.27 198.00,294.37 C198.00,291.74 202.02,286.00 203.83,286.03 C205.34,286.06 205.33,286.16 203.75,287.08 C199.07,289.80 197.36,299.74 201.11,302.37 C202.28,303.18 203.82,303.62 204.54,303.34 C207.13,302.35 209.31,292.00 206.93,292.00 C206.33,292.00 206.13,292.85 206.49,293.96 C207.74,297.92 203.09,302.28 201.64,298.50 C200.29,294.99 204.09,290.00 208.12,290.00 C216.83,290.00 212.59,303.66 197.65,323.73 C193.54,329.25 187.69,336.30 184.65,339.39 L 179.13 345.00 L 172.51 345.00 C168.87,345.00 162.75,344.28 158.90,343.41 C152.22,341.89 149.00,342.00 149.00,343.74 C149.00,344.19 152.49,345.15 156.75,345.89 C161.01,346.62 166.30,347.57 168.50,347.99 C175.18,349.26 177.12,349.09 180.67,346.90 Z" fill="currentColor"/>
</g>
</svg>